<svg width="33" height="33" viewBox="0 0 33 33" fill="none" xmlns="http://www.w3.org/2000/svg">
<path d="M10.408 19.16C10.3654 18.8613 10.3334 18.552 10.312 18.232C10.2907 17.912 10.28 17.6773 10.28 17.528C10.28 16.0986 10.536 14.744 11.048 13.464C11.56 12.1626 12.1894 11.064 12.936 10.168L16.168 10.904C15.7627 11.8213 15.432 12.8666 15.176 14.04C14.9414 15.192 14.824 16.2906 14.824 17.336C14.824 17.3786 14.824 17.4746 14.824 17.624C14.824 17.752 14.824 17.912 14.824 18.104C14.8454 18.2746 14.856 18.456 14.856 18.648C14.8774 18.84 14.8987 19.0106 14.92 19.16H10.408ZM17.288 19.16C17.2454 18.8613 17.2134 18.552 17.192 18.232C17.1707 17.912 17.16 17.6773 17.16 17.528C17.16 16.0986 17.416 14.744 17.928 13.464C18.44 12.1626 19.0694 11.064 19.816 10.168L23.048 10.904C22.6427 11.8213 22.312 12.8666 22.056 14.04C21.8214 15.192 21.704 16.2906 21.704 17.336C21.704 17.3786 21.704 17.4746 21.704 17.624C21.704 17.752 21.704 17.912 21.704 18.104C21.7254 18.2746 21.736 18.456 21.736 18.648C21.7574 18.84 21.7787 19.0106 21.8 19.16H17.288Z" fill="black"/>
</svg>
