<svg width="104" height="20" viewBox="0 0 104 20" fill="none" xmlns="http://www.w3.org/2000/svg">
<path d="M5.792 2.176C8.288 2.176 10.2 2.624 11.528 3.52C12.856 4.4 13.52 5.776 13.52 7.648C13.52 8.816 13.248 9.768 12.704 10.504C12.176 11.224 11.408 11.792 10.4 12.208C10.736 12.624 11.088 13.104 11.456 13.648C11.824 14.176 12.184 14.736 12.536 15.328C12.904 15.904 13.256 16.512 13.592 17.152C13.928 17.776 14.24 18.392 14.528 19H10.328C10.024 18.456 9.712 17.904 9.392 17.344C9.088 16.784 8.768 16.24 8.432 15.712C8.112 15.184 7.792 14.688 7.472 14.224C7.152 13.744 6.832 13.312 6.512 12.928H4.664V19H0.92V2.608C1.736 2.448 2.576 2.336 3.44 2.272C4.32 2.208 5.104 2.176 5.792 2.176ZM6.008 5.368C5.736 5.368 5.488 5.376 5.264 5.392C5.056 5.408 4.856 5.424 4.664 5.44V9.952H5.72C7.128 9.952 8.136 9.776 8.744 9.424C9.352 9.072 9.656 8.472 9.656 7.624C9.656 6.808 9.344 6.232 8.72 5.896C8.112 5.544 7.208 5.368 6.008 5.368ZM28.8864 12.664C28.8864 13.656 28.7424 14.568 28.4544 15.4C28.1664 16.216 27.7504 16.92 27.2064 17.512C26.6624 18.088 26.0064 18.536 25.2384 18.856C24.4864 19.176 23.6384 19.336 22.6944 19.336C21.7664 19.336 20.9184 19.176 20.1504 18.856C19.3984 18.536 18.7504 18.088 18.2064 17.512C17.6624 16.92 17.2384 16.216 16.9344 15.4C16.6304 14.568 16.4784 13.656 16.4784 12.664C16.4784 11.672 16.6304 10.768 16.9344 9.952C17.2544 9.136 17.6864 8.44 18.2304 7.864C18.7904 7.288 19.4464 6.84 20.1984 6.52C20.9664 6.2 21.7984 6.04 22.6944 6.04C23.6064 6.04 24.4384 6.2 25.1904 6.52C25.9584 6.84 26.6144 7.288 27.1584 7.864C27.7024 8.44 28.1264 9.136 28.4304 9.952C28.7344 10.768 28.8864 11.672 28.8864 12.664ZM25.2384 12.664C25.2384 11.56 25.0144 10.696 24.5664 10.072C24.1344 9.432 23.5104 9.112 22.6944 9.112C21.8784 9.112 21.2464 9.432 20.7984 10.072C20.3504 10.696 20.1264 11.56 20.1264 12.664C20.1264 13.768 20.3504 14.648 20.7984 15.304C21.2464 15.944 21.8784 16.264 22.6944 16.264C23.5104 16.264 24.1344 15.944 24.5664 15.304C25.0144 14.648 25.2384 13.768 25.2384 12.664ZM40.7446 12.592C40.7446 10.288 39.8966 9.136 38.2006 9.136C37.8326 9.136 37.4646 9.184 37.0966 9.28C36.7446 9.376 36.4566 9.496 36.2326 9.64V16.144C36.4086 16.176 36.6326 16.208 36.9046 16.24C37.1766 16.256 37.4726 16.264 37.7926 16.264C38.7686 16.264 39.5046 15.928 40.0006 15.256C40.4966 14.584 40.7446 13.696 40.7446 12.592ZM44.3926 12.688C44.3926 13.696 44.2406 14.608 43.9366 15.424C43.6486 16.24 43.2246 16.936 42.6646 17.512C42.1046 18.088 41.4166 18.536 40.6006 18.856C39.7846 19.16 38.8566 19.312 37.8166 19.312C37.3846 19.312 36.9286 19.288 36.4486 19.24C35.9846 19.208 35.5206 19.16 35.0566 19.096C34.6086 19.032 34.1766 18.96 33.7606 18.88C33.3446 18.784 32.9766 18.688 32.6566 18.592V0.951999L36.2326 0.375999V6.664C36.6326 6.488 37.0486 6.352 37.4806 6.256C37.9126 6.16 38.3766 6.112 38.8726 6.112C39.7686 6.112 40.5606 6.272 41.2486 6.592C41.9366 6.896 42.5126 7.336 42.9766 7.912C43.4406 8.488 43.7926 9.184 44.0326 10C44.2726 10.8 44.3926 11.696 44.3926 12.688ZM47.5409 12.784C47.5409 11.664 47.7089 10.688 48.0449 9.856C48.3969 9.008 48.8529 8.304 49.4129 7.744C49.9729 7.184 50.6129 6.76 51.3329 6.472C52.0689 6.184 52.8209 6.04 53.5889 6.04C55.3809 6.04 56.7969 6.592 57.8369 7.696C58.8769 8.784 59.3969 10.392 59.3969 12.52C59.3969 12.728 59.3889 12.96 59.3729 13.216C59.3569 13.456 59.3409 13.672 59.3249 13.864H51.2129C51.2929 14.6 51.6369 15.184 52.2449 15.616C52.8529 16.048 53.6689 16.264 54.6929 16.264C55.3489 16.264 55.9889 16.208 56.6129 16.096C57.2529 15.968 57.7729 15.816 58.1729 15.64L58.6529 18.544C58.4609 18.64 58.2049 18.736 57.8849 18.832C57.5649 18.928 57.2049 19.008 56.8049 19.072C56.4209 19.152 56.0049 19.216 55.5569 19.264C55.1089 19.312 54.6609 19.336 54.2129 19.336C53.0769 19.336 52.0849 19.168 51.2369 18.832C50.4049 18.496 49.7089 18.04 49.1489 17.464C48.6049 16.872 48.1969 16.176 47.9249 15.376C47.6689 14.576 47.5409 13.712 47.5409 12.784ZM55.9409 11.416C55.9249 11.112 55.8689 10.816 55.7729 10.528C55.6929 10.24 55.5569 9.984 55.3649 9.76C55.1889 9.536 54.9569 9.352 54.6689 9.208C54.3969 9.064 54.0529 8.992 53.6369 8.992C53.2369 8.992 52.8929 9.064 52.6049 9.208C52.3169 9.336 52.0769 9.512 51.8849 9.736C51.6929 9.96 51.5409 10.224 51.4289 10.528C51.3329 10.816 51.2609 11.112 51.2129 11.416H55.9409ZM70.7646 9.544C70.4446 9.464 70.0686 9.384 69.6366 9.304C69.2046 9.208 68.7406 9.16 68.2446 9.16C68.0206 9.16 67.7486 9.184 67.4286 9.232C67.1246 9.264 66.8926 9.304 66.7326 9.352V19H63.1566V7.048C63.7966 6.824 64.5486 6.616 65.4126 6.424C66.2926 6.216 67.2686 6.112 68.3406 6.112C68.5326 6.112 68.7646 6.128 69.0366 6.16C69.3086 6.176 69.5806 6.208 69.8526 6.256C70.1246 6.288 70.3966 6.336 70.6686 6.4C70.9406 6.448 71.1726 6.512 71.3646 6.592L70.7646 9.544ZM76.3559 17.104C76.3559 17.824 76.1239 18.376 75.6599 18.76C75.2119 19.128 74.6999 19.312 74.1239 19.312C73.5479 19.312 73.0279 19.128 72.5639 18.76C72.1159 18.376 71.8919 17.824 71.8919 17.104C71.8919 16.384 72.1159 15.84 72.5639 15.472C73.0279 15.088 73.5479 14.896 74.1239 14.896C74.6999 14.896 75.2119 15.088 75.6599 15.472C76.1239 15.84 76.3559 16.384 76.3559 17.104ZM78.4316 12.688C78.4316 11.776 78.5756 10.92 78.8636 10.12C79.1676 9.304 79.5996 8.6 80.1596 8.008C80.7196 7.4 81.3996 6.92 82.1996 6.568C82.9996 6.216 83.9116 6.04 84.9356 6.04C85.6076 6.04 86.2236 6.104 86.7836 6.232C87.3436 6.344 87.8876 6.512 88.4156 6.736L87.6716 9.592C87.3356 9.464 86.9676 9.352 86.5676 9.256C86.1676 9.16 85.7196 9.112 85.2236 9.112C84.1676 9.112 83.3756 9.44 82.8476 10.096C82.3356 10.752 82.0796 11.616 82.0796 12.688C82.0796 13.824 82.3196 14.704 82.7996 15.328C83.2956 15.952 84.1516 16.264 85.3676 16.264C85.7996 16.264 86.2636 16.224 86.7596 16.144C87.2556 16.064 87.7116 15.936 88.1276 15.76L88.6316 18.688C88.2156 18.864 87.6956 19.016 87.0716 19.144C86.4476 19.272 85.7596 19.336 85.0076 19.336C83.8556 19.336 82.8636 19.168 82.0316 18.832C81.1996 18.48 80.5116 18.008 79.9676 17.416C79.4396 16.824 79.0476 16.128 78.7916 15.328C78.5516 14.512 78.4316 13.632 78.4316 12.688ZM103.23 12.664C103.23 13.656 103.086 14.568 102.798 15.4C102.51 16.216 102.094 16.92 101.55 17.512C101.006 18.088 100.35 18.536 99.5822 18.856C98.8302 19.176 97.9822 19.336 97.0382 19.336C96.1102 19.336 95.2622 19.176 94.4942 18.856C93.7422 18.536 93.0942 18.088 92.5502 17.512C92.0062 16.92 91.5822 16.216 91.2782 15.4C90.9742 14.568 90.8222 13.656 90.8222 12.664C90.8222 11.672 90.9742 10.768 91.2782 9.952C91.5982 9.136 92.0302 8.44 92.5742 7.864C93.1342 7.288 93.7902 6.84 94.5422 6.52C95.3102 6.2 96.1422 6.04 97.0382 6.04C97.9502 6.04 98.7822 6.2 99.5342 6.52C100.302 6.84 100.958 7.288 101.502 7.864C102.046 8.44 102.47 9.136 102.774 9.952C103.078 10.768 103.23 11.672 103.23 12.664ZM99.5822 12.664C99.5822 11.56 99.3582 10.696 98.9102 10.072C98.4782 9.432 97.8542 9.112 97.0382 9.112C96.2222 9.112 95.5902 9.432 95.1422 10.072C94.6942 10.696 94.4702 11.56 94.4702 12.664C94.4702 13.768 94.6942 14.648 95.1422 15.304C95.5902 15.944 96.2222 16.264 97.0382 16.264C97.8542 16.264 98.4782 15.944 98.9102 15.304C99.3582 14.648 99.5822 13.768 99.5822 12.664Z" fill="black"/>
</svg>
