<svg width="135" height="26" viewBox="0 0 135 26" fill="none" xmlns="http://www.w3.org/2000/svg">
<path d="M7.056 2.568C10.384 2.568 12.9333 3.16533 14.704 4.36C16.4747 5.53333 17.36 7.368 17.36 9.864C17.36 11.4213 16.9973 12.6907 16.272 13.672C15.568 14.632 14.544 15.3893 13.2 15.944C13.648 16.4987 14.1173 17.1387 14.608 17.864C15.0987 18.568 15.5787 19.3147 16.048 20.104C16.5387 20.872 17.008 21.6827 17.456 22.536C17.904 23.368 18.32 24.1893 18.704 25H13.104C12.6987 24.2747 12.2827 23.5387 11.856 22.792C11.4507 22.0453 11.024 21.32 10.576 20.616C10.1493 19.912 9.72267 19.2507 9.296 18.632C8.86933 17.992 8.44267 17.416 8.016 16.904H5.552V25H0.56V3.144C1.648 2.93067 2.768 2.78133 3.92 2.696C5.09333 2.61067 6.13867 2.568 7.056 2.568ZM7.344 6.824C6.98133 6.824 6.65067 6.83467 6.352 6.856C6.07467 6.87733 5.808 6.89867 5.552 6.92V12.936H6.96C8.83733 12.936 10.1813 12.7013 10.992 12.232C11.8027 11.7627 12.208 10.9627 12.208 9.832C12.208 8.744 11.792 7.976 10.96 7.528C10.1493 7.05867 8.944 6.824 7.344 6.824ZM37.5153 16.552C37.5153 17.8747 37.3233 19.0907 36.9393 20.2C36.5553 21.288 36.0006 22.2267 35.2753 23.016C34.5499 23.784 33.6753 24.3813 32.6513 24.808C31.6486 25.2347 30.5179 25.448 29.2593 25.448C28.0219 25.448 26.8913 25.2347 25.8673 24.808C24.8646 24.3813 24.0006 23.784 23.2753 23.016C22.5499 22.2267 21.9846 21.288 21.5793 20.2C21.1739 19.0907 20.9713 17.8747 20.9713 16.552C20.9713 15.2293 21.1739 14.024 21.5793 12.936C22.0059 11.848 22.5819 10.92 23.3073 10.152C24.0539 9.384 24.9286 8.78667 25.9313 8.36C26.9553 7.93333 28.0646 7.72 29.2593 7.72C30.4753 7.72 31.5846 7.93333 32.5873 8.36C33.6113 8.78667 34.4859 9.384 35.2113 10.152C35.9366 10.92 36.5019 11.848 36.9073 12.936C37.3126 14.024 37.5153 15.2293 37.5153 16.552ZM32.6513 16.552C32.6513 15.08 32.3526 13.928 31.7553 13.096C31.1793 12.2427 30.3473 11.816 29.2593 11.816C28.1713 11.816 27.3286 12.2427 26.7313 13.096C26.1339 13.928 25.8353 15.08 25.8353 16.552C25.8353 18.024 26.1339 19.1973 26.7313 20.072C27.3286 20.9253 28.1713 21.352 29.2593 21.352C30.3473 21.352 31.1793 20.9253 31.7553 20.072C32.3526 19.1973 32.6513 18.024 32.6513 16.552ZM52.9928 16.456C52.9928 13.384 51.8621 11.848 49.6008 11.848C49.1101 11.848 48.6194 11.912 48.1288 12.04C47.6594 12.168 47.2754 12.328 46.9768 12.52V21.192C47.2114 21.2347 47.5101 21.2773 47.8728 21.32C48.2354 21.3413 48.6301 21.352 49.0568 21.352C50.3581 21.352 51.3394 20.904 52.0008 20.008C52.6621 19.112 52.9928 17.928 52.9928 16.456ZM57.8568 16.584C57.8568 17.928 57.6541 19.144 57.2488 20.232C56.8648 21.32 56.2994 22.248 55.5528 23.016C54.8061 23.784 53.8888 24.3813 52.8008 24.808C51.7128 25.2133 50.4754 25.416 49.0888 25.416C48.5128 25.416 47.9048 25.384 47.2648 25.32C46.6461 25.2773 46.0274 25.2133 45.4088 25.128C44.8114 25.0427 44.2354 24.9467 43.6808 24.84C43.1261 24.712 42.6354 24.584 42.2088 24.456V0.935999L46.9768 0.167999V8.552C47.5101 8.31733 48.0648 8.136 48.6408 8.008C49.2168 7.88 49.8354 7.816 50.4968 7.816C51.6914 7.816 52.7474 8.02933 53.6648 8.456C54.5821 8.86133 55.3501 9.448 55.9688 10.216C56.5874 10.984 57.0568 11.912 57.3768 13C57.6968 14.0667 57.8568 15.2613 57.8568 16.584ZM61.7213 16.712C61.7213 15.2187 61.9453 13.9173 62.3932 12.808C62.8626 11.6773 63.4706 10.7387 64.2173 9.992C64.9639 9.24533 65.8173 8.68 66.7773 8.296C67.7586 7.912 68.7613 7.72 69.7853 7.72C72.1746 7.72 74.0626 8.456 75.4493 9.928C76.8359 11.3787 77.5293 13.5227 77.5293 16.36C77.5293 16.6373 77.5186 16.9467 77.4973 17.288C77.4759 17.608 77.4546 17.896 77.4333 18.152H66.6173C66.7239 19.1333 67.1826 19.912 67.9933 20.488C68.8039 21.064 69.8919 21.352 71.2573 21.352C72.1319 21.352 72.9853 21.2773 73.8173 21.128C74.6706 20.9573 75.3639 20.7547 75.8973 20.52L76.5373 24.392C76.2813 24.52 75.9399 24.648 75.5133 24.776C75.0866 24.904 74.6066 25.0107 74.0733 25.096C73.5613 25.2027 73.0066 25.288 72.4093 25.352C71.8119 25.416 71.2146 25.448 70.6173 25.448C69.1026 25.448 67.7799 25.224 66.6493 24.776C65.5399 24.328 64.6119 23.72 63.8653 22.952C63.1399 22.1627 62.5959 21.2347 62.2333 20.168C61.8919 19.1013 61.7213 17.9493 61.7213 16.712ZM72.9213 14.888C72.8999 14.4827 72.8253 14.088 72.6973 13.704C72.5906 13.32 72.4093 12.9787 72.1533 12.68C71.9186 12.3813 71.6093 12.136 71.2253 11.944C70.8626 11.752 70.4039 11.656 69.8493 11.656C69.3159 11.656 68.8573 11.752 68.4733 11.944C68.0893 12.1147 67.7693 12.3493 67.5133 12.648C67.2573 12.9467 67.0546 13.2987 66.9053 13.704C66.7773 14.088 66.6813 14.4827 66.6173 14.888H72.9213ZM92.3528 12.392C91.9261 12.2853 91.4248 12.1787 90.8488 12.072C90.2728 11.944 89.6541 11.88 88.9928 11.88C88.6941 11.88 88.3314 11.912 87.9048 11.976C87.4994 12.0187 87.1901 12.072 86.9768 12.136V25H82.2088V9.064C83.0621 8.76533 84.0648 8.488 85.2168 8.232C86.3901 7.95467 87.6914 7.816 89.1208 7.816C89.3768 7.816 89.6861 7.83733 90.0488 7.88C90.4114 7.90133 90.7741 7.944 91.1368 8.008C91.4994 8.05067 91.8621 8.11467 92.2248 8.2C92.5874 8.264 92.8968 8.34933 93.1528 8.456L92.3528 12.392ZM99.4745 22.472C99.4745 23.432 99.1652 24.168 98.5465 24.68C97.9492 25.1707 97.2665 25.416 96.4985 25.416C95.7305 25.416 95.0372 25.1707 94.4185 24.68C93.8212 24.168 93.5225 23.432 93.5225 22.472C93.5225 21.512 93.8212 20.7867 94.4185 20.296C95.0372 19.784 95.7305 19.528 96.4985 19.528C97.2665 19.528 97.9492 19.784 98.5465 20.296C99.1652 20.7867 99.4745 21.512 99.4745 22.472ZM101.909 16.584C101.909 15.368 102.101 14.2267 102.485 13.16C102.89 12.072 103.466 11.1333 104.213 10.344C104.959 9.53333 105.866 8.89333 106.933 8.424C107.999 7.95467 109.215 7.72 110.581 7.72C111.477 7.72 112.298 7.80533 113.045 7.976C113.791 8.12533 114.517 8.34933 115.221 8.648L114.229 12.456C113.781 12.2853 113.29 12.136 112.757 12.008C112.223 11.88 111.626 11.816 110.965 11.816C109.557 11.816 108.501 12.2533 107.797 13.128C107.114 14.0027 106.773 15.1547 106.773 16.584C106.773 18.0987 107.093 19.272 107.733 20.104C108.394 20.936 109.535 21.352 111.157 21.352C111.733 21.352 112.351 21.2987 113.013 21.192C113.674 21.0853 114.282 20.9147 114.837 20.68L115.509 24.584C114.954 24.8187 114.261 25.0213 113.429 25.192C112.597 25.3627 111.679 25.448 110.677 25.448C109.141 25.448 107.818 25.224 106.709 24.776C105.599 24.3067 104.682 23.6773 103.957 22.888C103.253 22.0987 102.73 21.1707 102.389 20.104C102.069 19.016 101.909 17.8427 101.909 16.584ZM134.64 16.552C134.64 17.8747 134.448 19.0907 134.064 20.2C133.68 21.288 133.126 22.2267 132.4 23.016C131.675 23.784 130.8 24.3813 129.776 24.808C128.774 25.2347 127.643 25.448 126.384 25.448C125.147 25.448 124.016 25.2347 122.992 24.808C121.99 24.3813 121.126 23.784 120.4 23.016C119.675 22.2267 119.11 21.288 118.704 20.2C118.299 19.0907 118.096 17.8747 118.096 16.552C118.096 15.2293 118.299 14.024 118.704 12.936C119.131 11.848 119.707 10.92 120.432 10.152C121.179 9.384 122.054 8.78667 123.056 8.36C124.08 7.93333 125.19 7.72 126.384 7.72C127.6 7.72 128.71 7.93333 129.712 8.36C130.736 8.78667 131.611 9.384 132.336 10.152C133.062 10.92 133.627 11.848 134.032 12.936C134.438 14.024 134.64 15.2293 134.64 16.552ZM129.776 16.552C129.776 15.08 129.478 13.928 128.88 13.096C128.304 12.2427 127.472 11.816 126.384 11.816C125.296 11.816 124.454 12.2427 123.856 13.096C123.259 13.928 122.96 15.08 122.96 16.552C122.96 18.024 123.259 19.1973 123.856 20.072C124.454 20.9253 125.296 21.352 126.384 21.352C127.472 21.352 128.304 20.9253 128.88 20.072C129.478 19.1973 129.776 18.024 129.776 16.552Z" fill="white"/>
</svg>
