<svg xmlns="http://www.w3.org/2000/svg">
  <symbol viewBox="0 0 24 24" id="tw-icon">
    <path fill-rule="evenodd" clip-rule="evenodd"
      d="M20.1666 2.50001C19.3686 3.06291 18.485 3.49343 17.5499 3.77501C16.5219 2.59296 14.8652 2.17844 13.4017 2.73705C11.9381 3.29567 10.9789 4.70859 10.9999 6.27501V7.10834C8.02547 7.18547 5.20994 5.76832 3.49992 3.33334C3.49992 3.33334 0.166585 10.8333 7.66658 14.1667C5.95036 15.3316 3.90588 15.9158 1.83325 15.8333C9.33325 20 18.4999 15.8333 18.4999 6.25001C18.4991 6.01789 18.4768 5.78634 18.4333 5.55834C19.2838 4.71958 19.8839 3.6606 20.1666 2.50001Z"
      stroke-width="2" stroke-linecap="round" stroke-linejoin="round" />
  </symbol>
  <symbol viewBox="0 0 24 24" id="fb-icon">
    <path fill-rule="evenodd" clip-rule="evenodd"
      d="M18 2H15C12.2386 2 10 4.23858 10 7V10H7V14H10V22H14V14H17L18 10H14V7C14 6.44772 14.4477 6 15 6H18V2Z"
      stroke-width="2" stroke-linecap="round" stroke-linejoin="round" />
  </symbol>
  <symbol viewBox="0 0 24 24" id="inst-icon">
    <path fill-rule="evenodd" clip-rule="evenodd"
      d="M17 1H7C3.68629 1 1 3.68629 1 7V17C1 20.3137 3.68629 23 7 23H17C20.3137 23 23 20.3137 23 17V7C23 3.68629 20.3137 1 17 1ZM7 3H17C19.2091 3 21 4.79086 21 7V17C21 19.2091 19.2091 21 17 21H7C4.79086 21 3 19.2091 3 17V7C3 4.79086 4.79086 3 7 3ZM7.57709 9.70878C6.6073 11.6355 6.98247 13.967 8.50773 15.4923C10.033 17.0175 12.3645 17.3927 14.2912 16.4229C16.218 15.4531 17.3056 13.357 16.9892 11.2233C16.6661 9.0446 14.9554 7.33389 12.7767 7.01082C10.643 6.69441 8.54688 7.78203 7.57709 9.70878ZM12.4833 8.98918C13.7905 9.18303 14.817 10.2095 15.0108 11.5167C15.2007 12.7969 14.5481 14.0546 13.392 14.6364C12.236 15.2183 10.8371 14.9932 9.92195 14.0781C9.00679 13.1629 8.78169 11.764 9.36356 10.608C9.94543 9.45191 11.2031 8.79934 12.4833 8.98918ZM18.51 6.5C18.51 5.94772 18.0623 5.5 17.51 5.5L17.3834 5.50673C16.886 5.56449 16.5 5.98716 16.5 6.5C16.5 7.05228 16.9477 7.5 17.5 7.5L17.6266 7.49327C18.124 7.43551 18.51 7.01284 18.51 6.5Z" />
  </symbol>
  <symbol viewBox="0 0 36 24" id="r-arrow-icon">
    <path
      d="M25.8384 4.68629L25.1313 5.3934L31.5859 11.848L3 11.8479L3.00035 12.8482L31.5762 12.848L25.1313 19.2929L25.8384 20L32.9904 12.848H33.0001V12.8383L33.4953 12.3431L25.8384 4.68629Z" />
  </symbol>

  <symbol viewBox="0 0 36 24" id="l-arrow-icon">
    <path
      d="M10.1616 4.68629L10.8687 5.3934L4.41405 11.848L33 11.8479L32.9997 12.8482L4.42381 12.848L10.8687 19.2929L10.1616 20L3.00959 12.848H2.99993V12.8383L2.50473 12.3431L10.1616 4.68629Z" />
  </symbol>

</svg>